<?xml version="1.0" encoding="UTF-8" standalone="no"?>
<svg xmlns="http://www.w3.org/2000/svg" viewBox="0 0 32 32" width="64" height="64">
  <path fill="#4a6cf7" d="M16,0C7.164,0,0,7.164,0,16s7.164,16,16,16s16-7.164,16-16S24.836,0,16,0z M16,30 C8.268,30,2,23.732,2,16S8.268,2,16,2s14,6.268,14,14S23.732,30,16,30z"/>
  <path fill="#4a6cf7" d="M23.668,16.035c0-2.734-2.083-4.962-4.818-4.962c-0.419,0-0.828,0.064-1.212,0.16 c-0.884-2.016-2.881-3.417-5.218-3.417c-3.139,0-5.682,2.543-5.682,5.682c0,0.087,0.017,0.17,0.02,0.257 c-1.815,0.574-3.126,2.243-3.126,4.245c0,2.455,1.992,4.446,4.446,4.446h14.17c2.734,0,4.962-2.228,4.962-4.962 C27.21,16.035,23.668,16.035,23.668,16.035z M22.299,20.982h-14.17c-1.663,0-3.015-1.352-3.015-3.015 c0-1.663,1.352-3.015,3.015-3.015c0.177,0,0.354,0.02,0.531,0.054l0.723,0.144l-0.063-0.734c-0.007-0.08-0.01-0.16-0.01-0.24 c0-2.346,1.905-4.251,4.251-4.251c1.949,0,3.647,1.355,4.104,3.241l0.144,0.587l0.567-0.194c0.32-0.11,0.654-0.165,0.991-0.165 c1.7,0,3.082,1.382,3.082,3.082c0,0.271-0.037,0.54-0.11,0.804l-0.177,0.644h0.723c1.7,0,3.082,1.382,3.082,3.082 S23.999,20.982,22.299,20.982z"/>
  <path fill="#4a6cf7" d="M16.128,12.8c-0.142,0-0.284,0.057-0.385,0.172c-0.101,0.114-0.158,0.271-0.158,0.428v5.6 c0,0.157,0.057,0.314,0.158,0.428c0.102,0.115,0.244,0.172,0.385,0.172c0.142,0,0.284-0.057,0.385-0.172 c0.101-0.114,0.158-0.271,0.158-0.428v-5.6c0-0.157-0.057-0.314-0.158-0.428C16.412,12.857,16.27,12.8,16.128,12.8z"/>
  <path fill="#4a6cf7" d="M18.928,12.8c-0.142,0-0.284,0.057-0.385,0.172c-0.101,0.114-0.158,0.271-0.158,0.428v5.6 c0,0.157,0.057,0.314,0.158,0.428c0.102,0.115,0.244,0.172,0.385,0.172c0.142,0,0.284-0.057,0.385-0.172 c0.101-0.114,0.158-0.271,0.158-0.428v-5.6c0-0.157-0.057-0.314-0.158-0.428C19.212,12.857,19.07,12.8,18.928,12.8z"/>
  <path fill="#4a6cf7" d="M13.328,12.8c-0.142,0-0.284,0.057-0.385,0.172c-0.101,0.114-0.158,0.271-0.158,0.428v5.6 c0,0.157,0.057,0.314,0.158,0.428c0.102,0.115,0.244,0.172,0.385,0.172c0.142,0,0.284-0.057,0.385-0.172 c0.101-0.114,0.158-0.271,0.158-0.428v-5.6c0-0.157-0.057-0.314-0.158-0.428C13.612,12.857,13.47,12.8,13.328,12.8z"/>
</svg>
