<?xml version="1.0" encoding="UTF-8" standalone="no"?>
<svg xmlns="http://www.w3.org/2000/svg" viewBox="0 0 32 32" width="64" height="64">
  <!-- Kubernetes logo with the correct blue color -->
  <path fill="#4a6cf7" d="M15.9 4.9c-.1 0-.2 0-.3.1l-9.9 5.7c-.2.1-.3.3-.3.5v11.4c0 .2.1.4.3.5l9.9 5.7c.2.1.4.1.6 0l9.9-5.7c.2-.1.3-.3.3-.5V11.2c0-.2-.1-.4-.3-.5l-9.9-5.7c-.1 0-.2-.1-.3-.1zm.1 2.1l8.4 4.8v9.7l-8.4 4.8-8.4-4.8v-9.7l8.4-4.8z"/>
  <!-- Kubernetes wheel -->
  <path fill="#4a6cf7" d="M16 8.7c-4 0-7.3 3.3-7.3 7.3s3.3 7.3 7.3 7.3 7.3-3.3 7.3-7.3-3.3-7.3-7.3-7.3zm0 1.5c3.2 0 5.8 2.6 5.8 5.8s-2.6 5.8-5.8 5.8-5.8-2.6-5.8-5.8 2.6-5.8 5.8-5.8z"/>
  <!-- Kubernetes spokes -->
  <path fill="#4a6cf7" d="M16 12.2c-2.1 0-3.8 1.7-3.8 3.8s1.7 3.8 3.8 3.8 3.8-1.7 3.8-3.8-1.7-3.8-3.8-3.8zm0 1.5c1.3 0 2.3 1 2.3 2.3s-1 2.3-2.3 2.3-2.3-1-2.3-2.3 1-2.3 2.3-2.3z"/>
  <!-- Additional decorative elements -->
  <path fill="#4a6cf7" d="M16 7.2c-.4 0-.8.3-.8.8s.3.8.8.8.8-.3.8-.8-.4-.8-.8-.8zM16 23.2c-.4 0-.8.3-.8.8s.3.8.8.8.8-.3.8-.8-.4-.8-.8-.8zM8.5 16c0-.4-.3-.8-.8-.8s-.8.3-.8.8.3.8.8.8.8-.4.8-.8zM25 16c0-.4-.3-.8-.8-.8s-.8.3-.8.8.3.8.8.8.8-.4.8-.8z"/>
  <path fill="#4a6cf7" d="M10.6 10.6c-.3-.3-.8-.3-1.1 0s-.3.8 0 1.1.8.3 1.1 0 .3-.8 0-1.1zM22.5 20.3c-.3-.3-.8-.3-1.1 0s-.3.8 0 1.1.8.3 1.1 0 .3-.8 0-1.1zM10.6 21.4c.3-.3.3-.8 0-1.1s-.8-.3-1.1 0-.3.8 0 1.1.8.3 1.1 0zM22.5 11.7c.3-.3.3-.8 0-1.1s-.8-.3-1.1 0-.3.8 0 1.1.8.3 1.1 0z"/>
</svg>
