<?xml version="1.0" encoding="UTF-8" standalone="no"?>
<svg xmlns="http://www.w3.org/2000/svg" viewBox="0 0 32 32" width="64" height="64">
  <path fill="#4a6cf7" d="M15.9.476a1.92 1.92 0 0 0-.282.006 1.977 1.977 0 0 0-1.67 1.987v.033c.012.43.011.864.006 1.294a.208.208 0 0 1-.06.143.205.205 0 0 1-.144.058c-.717.017-1.43.094-2.137.23a.204.204 0 0 1-.165-.05.202.202 0 0 1-.064-.158 21.137 21.137 0 0 0-.499-1.716 1.98 1.98 0 0 0-2.196-1.379 1.97 1.97 0 0 0-1.581 2.05c.06.61.171 1.214.33 1.808.025.097-.02.2-.11.241-.692.317-1.358.693-1.991 1.122a.2.2 0 0 1-.161.03.202.202 0 0 1-.133-.105c-.416-.724-.886-1.42-1.406-2.081a1.97 1.97 0 0 0-2.285-.616 1.977 1.977 0 0 0-.941 2.641c.271.558.586 1.096.94 1.61.058.083.044.195-.033.258-.589.486-1.142 1.017-1.654 1.587a.203.203 0 0 1-.16.06.202.202 0 0 1-.145-.092 21.324 21.324 0 0 0-1.422-1.547 1.975 1.975 0 0 0-2.776.377 1.977 1.977 0 0 0 .26 2.776c.468.407.963.782 1.48 1.123.085.055.114.166.067.254-.36.665-.673 1.358-.935 2.068a.201.201 0 0 1-.137.134.204.204 0 0 1-.188-.03 22.568 22.568 0 0 0-1.722-1.037 1.98 1.98 0 0 0-2.574 1.055 1.98 1.98 0 0 0 .93 2.635c.548.27 1.116.501 1.698.693.096.03.156.128.139.228a18.43 18.43 0 0 0-.184 2.297.2.2 0 0 1-.093.168.204.204 0 0 1-.193.018 20.862 20.862 0 0 0-1.78-.5 1.982 1.982 0 0 0-2.398 1.555 1.98 1.98 0 0 0 1.463 2.334c.6.13 1.21.22 1.826.27.1.008.18.091.174.19-.034.7-.013 1.401.066 2.094a.202.202 0 0 1-.05.165.205.205 0 0 1-.158.064c-.61.008-1.22.056-1.828.145a1.982 1.982 0 0 0-1.721 2.23 1.98 1.98 0 0 0 2.055 1.626c.614-.06 1.22-.16 1.816-.298.097-.028.2.02.24.111.286.665.622 1.311 1.006 1.93a.201.201 0 0 1 .026.162.2.2 0 0 1-.109.13c-.56.278-1.101.593-1.619.944a1.982 1.982 0 0 0-.58 2.74 1.98 1.98 0 0 0 2.65.493c.524-.38 1.021-.8 1.487-1.249.076-.073.194-.069.267.008.522.55 1.087 1.06 1.69 1.528a.204.204 0 0 1 .064.156.202.202 0 0 1-.088.143c-.453.36-.878.756-1.272 1.184a1.98 1.98 0 0 0 .204 2.792 1.98 1.98 0 0 0 2.79-.28c.388-.445.741-.92 1.055-1.416.052-.083.16-.112.248-.068.633.324 1.289.602 1.962.83a.204.204 0 0 1 .129.138.201.201 0 0 1-.034.186 19.143 19.143 0 0 0-.837 1.575 1.98 1.98 0 0 0 .985 2.618 1.98 1.98 0 0 0 2.605-1.081c.237-.565.435-1.148.591-1.74.026-.097.125-.156.225-.138.684.122 1.379.195 2.077.217a.203.203 0 0 1 .166.094.202.202 0 0 1 .017.188c-.18.604-.32 1.22-.418 1.84a1.98 1.98 0 0 0 1.536 2.308 1.98 1.98 0 0 0 2.285-1.629c.09-.611.14-1.228.148-1.846.001-.099.08-.18.18-.178.346.008.692.008 1.038 0 .099-.002.18.08.18.178.008.614.057 1.227.147 1.834a1.98 1.98 0 0 0 2.287 1.629 1.98 1.98 0 0 0 1.535-2.309 19.306 19.306 0 0 0-.418-1.839.202.202 0 0 1 .016-.188.203.203 0 0 1 .166-.094c.698-.022 1.394-.095 2.078-.217a.204.204 0 0 1 .224.138c.156.592.354 1.175.592 1.74a1.98 1.98 0 0 0 2.605 1.08 1.98 1.98 0 0 0 .984-2.617 19.15 19.15 0 0 0-.837-1.575.202.202 0 0 1-.033-.186.203.203 0 0 1 .129-.138 18.973 18.973 0 0 0 1.961-.83c.088-.044.196-.015.248.068.314.496.667.971 1.055 1.416a1.98 1.98 0 0 0 2.79.28 1.98 1.98 0 0 0 .205-2.792 19.365 19.365 0 0 0-1.273-1.184.202.202 0 0 1-.088-.143.205.205 0 0 1 .065-.156c.602-.469 1.167-.979 1.689-1.528.073-.077.191-.081.267-.008.466.45.963.87 1.487 1.249a1.98 1.98 0 0 0 2.65-.493 1.981 1.981 0 0 0-.58-2.74 19.175 19.175 0 0 0-1.62-.944.2.2 0 0 1-.108-.13.202.202 0 0 1 .026-.162c.384-.619.72-1.265 1.006-1.93.04-.09.144-.139.24-.111.597.138 1.203.239 1.817.298a1.98 1.98 0 0 0 2.054-1.626 1.982 1.982 0 0 0-1.72-2.23c-.61-.09-1.22-.137-1.829-.145a.205.205 0 0 1-.158-.064.203.203 0 0 1-.05-.165c.079-.693.1-1.394.066-2.094-.006-.099.074-.182.174-.19.616-.05 1.226-.14 1.826-.27a1.98 1.98 0 0 0 1.463-2.334 1.982 1.982 0 0 0-2.398-1.555 20.9 20.9 0 0 0-1.78.5.204.204 0 0 1-.193-.018.2.2 0 0 1-.093-.168 18.43 18.43 0 0 0-.184-2.297c-.017-.1.043-.198.14-.228.581-.192 1.15-.424 1.697-.693a1.98 1.98 0 0 0 .93-2.635 1.98 1.98 0 0 0-2.574-1.055 22.6 22.6 0 0 0-1.722 1.037.204.204 0 0 1-.188.03.201.201 0 0 1-.137-.134 18.57 18.57 0 0 0-.935-2.068c-.047-.088-.018-.2.067-.254a20.879 20.879 0 0 0 1.48-1.123 1.977 1.977 0 0 0 .26-2.776 1.975 1.975 0 0 0-2.776-.377 21.33 21.33 0 0 0-1.422 1.547.202.202 0 0 1-.146.092.203.203 0 0 1-.16-.06 18.978 18.978 0 0 0-1.653-1.587c-.077-.063-.091-.175-.033-.258.354-.514.669-1.052.94-1.61a1.977 1.977 0 0 0-.941-2.641 1.97 1.97 0 0 0-2.285.616c-.52.66-.99 1.357-1.406 2.081a.202.202 0 0 1-.133.105.2.2 0 0 1-.161-.03 18.74 18.74 0 0 0-1.99-1.122c-.09-.041-.136-.144-.111-.241.16-.594.27-1.198.33-1.808a1.97 1.97 0 0 0-1.581-2.05 1.98 1.98 0 0 0-2.196 1.379c-.21.572-.37 1.153-.499 1.716a.202.202 0 0 1-.064.159.204.204 0 0 1-.165.05 18.622 18.622 0 0 0-2.137-.231.205.205 0 0 1-.144-.058.208.208 0 0 1-.06-.143c-.005-.43-.006-.865.006-1.294v-.033a1.977 1.977 0 0 0-1.67-1.987A1.92 1.92 0 0 0 15.9.476z"/>
  <path fill="#ffffff" d="M16.002 7.54a8.5 8.5 0 0 0-8.512 8.5 8.5 8.5 0 0 0 8.512 8.5 8.5 8.5 0 0 0 8.512-8.5 8.5 8.5 0 0 0-8.512-8.5zm0 1.773c.172 0 .344.014.514.025l-.514.893-.512-.893c.17-.01.34-.025.512-.025zm-1.361.09l.848 1.47-1.318.437-.467-1.6c.307-.124.62-.226.937-.307zm2.721 0c.318.081.63.183.938.307l-.467 1.6-1.318-.437.847-1.47zm-5.13.844c.267.218.522.452.762.7l-1.22.883-.7-1.432c.378-.063.766-.11 1.158-.151zm7.54 0c.392.04.78.088 1.158.15l-.7 1.433-1.22-.883c.24-.248.495-.482.762-.7zm-9.613.89c.224.11.444.23.66.359l-.357 1.625-1.432-.357c.347-.59.737-1.141 1.129-1.627zm11.687 0c.392.486.782 1.037 1.13 1.627l-1.433.357-.357-1.625c.216-.129.436-.25.66-.359zm-6.349.715l1.365 2.367-2.367 1.365-1.365-2.367 2.367-1.365zm.967.002l2.367 1.365-1.365 2.367-2.367-1.365 1.365-2.367zm-7.313.922c.142.203.275.414.4.629l-1.037 1.318-1.035-1.037c.495-.348 1.037-.659 1.672-.91zm13.66 0c.635.251 1.177.562 1.672.91l-1.035 1.037-1.037-1.318c.125-.215.258-.426.4-.629zm-14.943 1.58c.377.377.72.794 1.025 1.24l-1.627.357-.357-1.432c.316-.064.637-.118.959-.164zm16.227 0c.322.046.643.1.959.164l-.357 1.432-1.627-.357c.305-.446.648-.863 1.025-1.24zm-8.114.01c1.95 0 3.535 1.584 3.535 3.535 0 1.95-1.584 3.535-3.535 3.535-1.95 0-3.535-1.584-3.535-3.535 0-1.95 1.584-3.535 3.535-3.535zm-9.02.957c.203.142.414.275.629.4l-.883 1.22-1.432-.7c.486-.324 1.037-.66 1.686-.92zm18.04 0c.649.26 1.2.596 1.686.92l-1.432.7-.883-1.22c.215-.125.426-.258.629-.4zm-9.02.816a1.762 1.762 0 0 0-1.762 1.762 1.762 1.762 0 0 0 1.762 1.762 1.762 1.762 0 0 0 1.762-1.762 1.762 1.762 0 0 0-1.762-1.762zm-10.06.1c.064.316.118.637.164.959l-1.432.357-.357-1.627c.446.305.863.648 1.24 1.025l.385-.714zm20.12 0l.385.714c.377-.377.72-.794 1.025-1.24l-.357 1.627-1.432-.357c.046-.322.1-.643.164-.959zm-18.5 1.977c.348.495.659 1.037.91 1.672l-1.318 1.037-.629-.4c.251-.635.562-1.177.91-1.672l.127-.637zm16.88 0l.127.637c.348.495.659 1.037.91 1.672l-.629.4-1.318-1.037c.251-.635.562-1.177.91-1.672zm-14.943 1.58c.324.486.66 1.037.92 1.686l-1.22.883-.4-.629c.26-.649.596-1.2.92-1.686l-.22-.254zm13.006 0l-.22.254c.324.486.66 1.037.92 1.686l-.4.629-1.22-.883c.26-.649.596-1.2.92-1.686zm-10.06.1c.063.377.11.766.151 1.158l-1.432.7-.7-1.22c.248-.24.482-.495.7-.762l1.28.124zm7.114 0l1.28-.124c.218.267.452.522.7.762l-.7 1.22-1.432-.7c.04-.392.088-.78.15-1.158zm-4.06.42c.081.318.183.63.307.938l-1.6.467-.437-1.318 1.47-.848.26.761zm1.006 0l.26-.761 1.47.848-.437 1.318-1.6-.467c.124-.307.226-.62.307-.938zm-.503 1.467c.01.17.025.34.025.512 0 .172-.014.344-.025.514l-.893-.514.893-.512zm0 0"/>
</svg>
