<?xml version="1.0" encoding="UTF-8" standalone="no"?>
<svg xmlns="http://www.w3.org/2000/svg" viewBox="0 0 32 32" width="64" height="64">
  <path fill="#4a6cf7" d="M16,0C7.164,0,0,7.164,0,16s7.164,16,16,16s16-7.164,16-16S24.836,0,16,0z M16,30 C8.268,30,2,23.732,2,16S8.268,2,16,2s14,6.268,14,14S23.732,30,16,30z"/>
  <path fill="#4a6cf7" d="M23,9h-4v2h4v10h-4v2h5c0.552,0,1-0.448,1-1V10C25,9.448,24.552,9,23,9z"/>
  <path fill="#4a6cf7" d="M9,9H5c-0.552,0-1,0.448-1,1v12c0,0.552,0.448,1,1,1h5v-2H6V11h3V9z"/>
  <path fill="#4a6cf7" d="M16,9c-3.866,0-7,3.134-7,7s3.134,7,7,7s7-3.134,7-7S19.866,9,16,9z M16,21c-2.757,0-5-2.243-5-5 s2.243-5,5-5s5,2.243,5,5S18.757,21,16,21z"/>
  <circle fill="#4a6cf7" cx="16" cy="16" r="3"/>
</svg>
